Patient4_TMGait_0pt3_02_right_20_EMG.mot
version=1
nRows=20
nColumns=33
inDegrees=no
endheader
time	1LAddLong	2LGlutMax	3LGlutMed	4LIliopsoas	5LSemiMemb	6LBicFemLong	7LRecFem	8LVastMed	9LVastLat	10LGasMed	11LTibAnt	12lTibPost	13LPeroneusLong	14LSol	15LExtDigLong	16LFlexDigLong	17RAddLong	18RGlutMax	19RGlutMed	20RIliopsoas	21RSemiMemb	22RBicFemLong	23RRecFem	24RVastMed	25RVastLat	26RGasMed	27RTibAnt	28RTibPost	29RPeroneusLong	30RSol	31RExtDigLong	32RFlexDigLong
38.825	0.007935	-0.13412	0.067444	0.00351	0.001831	-0.044098	-0.010834	0.002747	0.003052	0.002136	0.01709	-0.015411	-0.003357	0.094299	0.010681	-0.000916	-0.034943	0.43625	-0.53894	0.007019	-0.18219	-0.088348	-0.055695	-0.15121	0.052948	-0.009613	0.00946	-0.005035	0.13412	-0.18784	-0.004578	-0.006409
38.826	0.006409	-0.14755	0.082245	-0.010223	0.013733	-0.035248	-0.026703	0.002136	0.000153	0.000458	0.041046	-0.016022	-0.00824	0.04776	0.016174	0.007935	-0.030823	0.4509	-0.47394	-0.001373	0.017242	-0.014496	-0.030365	-0.014801	0.1033	-0.020752	0.017395	-0.036926	0.13962	-0.16907	-0.003357	-0.007019
38.827	0.010071	-0.13138	0.088348	0.00473	0.007782	-0.033264	-0.036011	0.006104	0.001678	-0.002289	0.016785	-0.0177	-0.014954	0.042725	0.01358	0.006256	-0.007629	0.43793	-0.11276	-0.04364	0.074768	-0.001221	-0.006561	0.001678	0.26199	-0.020905	0.04715	-0.010834	0.11917	-0.17059	-0.007172	-0.001678
38.828	0.016785	-0.12512	0.10666	0.017242	0.019379	-0.015564	-0.04303	0.001526	0.011902	0.002289	0.040588	-0.015259	-0.007324	0.047455	0.009918	0.01709	0.002594	0.35934	0.32196	-0.010529	0.000305	-0.022583	0.009003	-0.13855	0.578	-0.014343	0.028687	0.013733	0.002136	0.16815	-0.000153	0.004425
38.829	0.005035	-0.12146	0.096283	0.011902	0.014343	0.000458	-0.042877	0.004272	0.001984	0.013275	0.026093	-0.017548	0.005341	0.076447	0.008545	0.024109	-0.030365	0.29663	0.39673	0.089722	-0.090942	-0.029449	-0.041199	-0.007019	0.60989	-0.008698	0.021973	0.006866	-0.16449	0.35645	-0.002747	-0.009613
38.83	0.007172	-0.12558	0.10422	0.009308	0.005951	0.005188	-0.053253	0.005188	0.007782	0.006104	0.010529	-0.014038	0.001221	0.077667	0.005493	0.023804	-0.051422	0.28351	-0.12344	0.12268	-0.01709	-0.052185	-0.074615	0.011902	0.46722	-0.015411	0.037231	0	-0.24933	0.26779	-0.003662	-0.001526
38.831	0.008698	-0.15167	0.11444	0.008392	-0.001984	-0.027771	-0.063629	0.004578	0.007935	0.014191	0.031586	-0.010681	-0.004425	0.062561	0.000153	0.020142	0.019531	0.34912	0.53635	0.028076	-0.027313	-0.041199	-0.026703	-0.046692	0.2626	-0.00946	0.040131	-0.009308	-0.16296	0.044708	-0.001678	-0.008545
38.832	0.003967	-0.15656	0.12054	0.003662	-0.011749	-0.0354	-0.054932	0.006256	0.003662	0.000763	-0.000153	-0.014191	-0.006256	0.036011	0.001526	0.005035	0.06897	0.28717	0.75745	-0.065308	-0.025635	0.011902	-0.067444	-0.03479	0.38452	0.012054	0.033264	-0.013733	0.002289	-0.18723	-0.00412	0.007935
38.833	-0.043182	-0.13382	0.13886	0.020294	-0.00885	-0.045319	-0.044403	0.000153	-0.006104	0.010986	0.01297	-0.014191	0.003662	0.039825	0.002899	0.002289	0.04776	0.22385	0.32669	-0.037842	0.11429	0.033569	-0.031433	0.21225	0.36011	0.007019	0.016022	-0.013885	0.26642	-0.32562	-0.00412	0.000153
38.834	-0.01709	-0.13031	0.13626	0.017548	-0.019836	-0.043335	-0.03952	0.003815	0.009003	0.015106	0.023956	-0.017853	0.010071	0.052185	-0.007019	0.011597	0.045166	0.22659	0.22034	0.012512	0.057068	0.035858	0.13825	0.92209	-0.10742	-0.002441	0.025177	-0.004883	0.15549	-0.24826	0.003357	-0.001831
38.835	0.002594	-0.13809	0.14954	0.024567	-0.017395	-0.016022	-0.05722	0.009613	-0.002594	0.003662	0.023193	-0.004425	-0.000305	0.027924	-0.000458	-0.000916	-0.00061	0.289	-0.36774	0.095978	-0.33875	0.023041	0.21362	0.59631	-0.51743	-0.007629	0.033264	0.007477	0.09552	-0.17288	0.000458	-0.004272
38.836	-0.011292	-0.10269	0.15442	0.005798	-0.015869	-0.019836	-0.061798	0.001526	0.014648	0.002899	0.021515	-0.002289	-0.001831	0.024872	-0.004272	-0.001984	-0.061646	0.30258	-1.0373	0.13672	-0.31036	0.1709	0.21545	-0.074921	-0.70786	-0.008392	0.03891	0.039063	0.10071	-0.073853	-0.00061	-0.005798
38.837	-0.000153	-0.10346	0.15945	0.001526	-0.002747	-0.052185	-0.068665	0.002136	0.013123	0.000458	0.014038	-0.007172	-0.009308	-0.015106	0.002594	0.006256	-0.036011	0.18906	-0.67932	0.10376	-0.007935	0.233	0.084991	-0.45883	-0.67841	-0.010071	0.01297	0.00824	0.16037	0.056915	-0.00351	-0.005798
38.838	0.002899	-0.10208	0.14832	0.00351	0.007019	-0.11536	-0.085144	0.000305	0.031738	-0.000916	0.027771	-0.014496	-0.007935	0.027771	-0.009003	-0.003815	-0.0737	0.12131	-0.14923	0.067902	0.39948	0.11993	-0.007935	-0.34286	-0.6839	-0.025787	0.027008	-0.23758	0.11627	0.10208	-0.004425	-0.016174
38.839	0.002747	-0.09079	0.16251	0.018005	0.023193	-0.13031	-0.090485	-0.001221	0.032959	-0.022583	0.024414	-0.010376	-0.003662	0.009918	-0.007935	-0.004578	-0.037537	-0.028992	-0.082092	0.069275	0.32196	0.003204	-0.005035	-0.58991	-0.40512	-0.024414	0.061493	-0.12695	-0.008545	0.10178	-0.00473	-0.013275
38.84	0.00412	-0.10086	0.15259	0.011139	0.020599	-0.071564	-0.090637	-0.000458	0.027161	-0.026093	-0.001831	-0.003815	0.002136	-0.001678	0.002289	-0.00351	0.055695	-0.22293	0.001068	-0.037231	0.023041	-0.024414	-0.082092	-0.66193	-0.054626	-0.024719	0.045929	-0.029297	-0.025177	-0.059662	-0.004272	-0.013885
38.841	-0.001373	-0.09201	0.16678	0.003815	0.030518	-0.062561	-0.065918	-0.000458	0.024719	-0.027313	0.02655	-0.010681	-0.003662	0.005341	-0.005493	-0.004425	0.059509	-0.30548	1.0001	-0.11627	-0.13107	-0.058594	-0.25177	-0.06424	0.16876	-0.020905	0.04425	0.20813	0.044861	-0.26337	-0.001831	-0.011597
38.842	0.011749	-0.063782	0.16068	0.004425	0.036011	-0.068817	-0.054474	-0.003967	0.00824	-0.022278	0.021515	-0.002289	-0.00946	-0.014038	-0.004578	-0.000458	0.020905	-0.37445	0.87219	-0.11307	-0.4866	-0.078583	-0.085754	0.14435	0.13916	0.008087	0.10773	0.1976	0.056458	-0.20096	-0.000916	-0.011902
38.843	0.004425	-0.068512	0.16205	0.000458	0.031433	-0.019836	-0.0383	0.010834	0.007172	-0.020447	-0.000153	-0.006866	-0.011749	-0.007019	0.003357	-0.002441	0.001831	-0.33508	0.23987	-0.015717	-0.29343	-0.15549	0.046844	0.068512	0.074768	0.006104	0.082855	0.066223	0.1355	0.30456	0.001373	0
38.844	0.005798	-0.067444	0.18677	0.018005	0.015564	-0.00946	-0.050812	0.005493	0.007477	0.032196	0.037079	-0.010376	-0.011292	0.002747	0.000916	-0.005798	-0.040741	-0.26123	0.002747	0.014954	0.037842	-0.37872	0.006561	0.078735	0.14481	-0.00061	0.018616	0.023651	0.10132	0.20569	-0.00824	-0.008698
